<svg version="1.1" xmlns="http://www.w3.org/2000/svg" xmlns:xlink="http://www.w3.org/1999/xlink" width="24px" height="24px" viewBox="0,0,256,256"><g fill="#d6ef0e" fill-rule="nonzero" stroke="none" stroke-width="1" stroke-linecap="butt" stroke-linejoin="miter" stroke-miterlimit="10" stroke-dasharray="" stroke-dashoffset="0" font-family="none" font-weight="none" font-size="none" text-anchor="none" style="mix-blend-mode: normal"><g transform="translate(-5.32307,-5.33333) scale(10.66667,10.66667)"><path d="M12.5,3c-5.24442,0.00551 -9.49449,4.25558 -9.5,9.5c-0.00892,2.34724 0.86159,4.6127 2.44,6.35l-2.29,2.3c-0.14942,0.13737 -0.19378,0.35513 -0.11,0.54c0.0767,0.18671 0.25815,0.30899 0.46,0.31h9c5.24671,0 9.5,-4.25329 9.5,-9.5c0,-5.24671 -4.25329,-9.5 -9.5,-9.5zM8.5,14.5c-0.55228,0 -1,-0.44772 -1,-1c0,-0.55228 0.44772,-1 1,-1c0.55228,0 1,0.44772 1,1c0,0.55228 -0.44772,1 -1,1zM12.5,14.5c-0.55228,0 -1,-0.44772 -1,-1c0,-0.55228 0.44772,-1 1,-1c0.55228,0 1,0.44772 1,1c0,0.55228 -0.44772,1 -1,1zM16.5,14.5c-0.55228,0 -1,-0.44772 -1,-1c0,-0.55228 0.44772,-1 1,-1c0.55228,0 1,0.44772 1,1c0,0.55228 -0.44772,1 -1,1z"></path></g></g></svg>